# xmcd CD database file
#
# Track frame offsets:
#	150
#	19755
#	28642
#	46615
#	53562
#	75490
#	90255
#	100855
#	118805
#	128677
#	138795
#
# Disc length: 2012 seconds
#
# Revision: 0
# Processed by: cddbd v1.5.1PL0 Copyright (c) Steve Scherf et al.
# Submitted via: CDex 1.51
#
DISCID=7507da0b
DTITLE=June Christy - Something Cool
DYEAR=1955
DGENRE=Jazz
TTITLE0=Something Cool
TTITLE1=It Could Happen To You
TTITLE2=Lonely House
TTITLE3=This Time The Dream's On Me
TTITLE4=The Night We Called It A Day
TTITLE5=Midnight Sun
TTITLE6=I'll Take Romance
TTITLE7=A Stranger Called The Blues
TTITLE8=I Should Care
TTITLE9=Softly As In A Morning Sunrise
TTITLE10=I'm Thrilled
EXTD=YEAR: 1955
EXTT0=
EXTT1=
EXTT2=
EXTT3=
EXTT4=
EXTT5=
EXTT6=
EXTT7=
EXTT8=
EXTT9=
EXTT10=
PLAYORDER=
